<?xml version="1.0" encoding="UTF-8"?>
<svg xmlns="http://www.w3.org/2000/svg" xmlns:xlink="http://www.w3.org/1999/xlink" version="1.1" viewBox="0 0 2436.7 589.2">
  <defs>
    <style>
      .cls-1 {
        fill: url(#_Безымянный_градиент);
      }

      .cls-2, .cls-3 {
        fill: #fff;
      }

      .cls-3 {
        isolation: isolate;
        opacity: .8;
      }
    </style>
    <linearGradient id="_Безымянный_градиент" data-name="Безымянный градиент" x1="0" y1="552.8" x2="2436.7" y2="552.8" gradientTransform="translate(0 847.4) scale(1 -1)" gradientUnits="userSpaceOnUse">
      <stop offset=".3" stop-color="#d939ac"/>
      <stop offset=".8" stop-color="#b87cf8"/>
    </linearGradient>
  </defs>
  <!-- Generator: Adobe Illustrator 28.7.1, SVG Export Plug-In . SVG Version: 1.2.0 Build 142)  -->
  <g>
    <g id="_Слой_1" data-name="Слой_1">
      <g id="_Слой_1-2" data-name="_Слой_1">
        <g>
          <rect class="cls-1" width="2436.7" height="589.2" rx="16.3" ry="16.3"/>
          <path class="cls-2" d="M505.1,480h-72.1c-3.9,0-7.5-2.2-9.2-5.8l-18.2-38.2c-1.7-3.5-5.3-5.8-9.2-5.8h-172.5c-3.9,0-7.5,2.2-9.2,5.8l-18.2,38.2c-1.7,3.5-5.3,5.8-9.2,5.8h-72.6c-7.4,0-12.3-7.6-9.2-14.3L263.5,116.5c1.7-3.7,5.3-6,9.2-6h75.7c4,0,7.6,2.4,9.3,6l156.7,349.2c3,6.7-1.9,14.3-9.3,14.3h0ZM359.8,329.9l-41.4-86.2c-3.8-7.9-15-7.6-18.5.4l-37.2,86.2c-2.9,6.7,2,14.2,9.3,14.2h78.6c7.5,0,12.4-7.8,9.2-14.5h0Z"/>
          <path class="cls-2" d="M641.6,286.8v183.1c0,5.6-4.5,10.1-10.1,10.1h-69.1c-5.6,0-10.1-4.5-10.1-10.1V120.7c0-5.6,4.5-10.1,10.1-10.1h78.6c3,0,5.9,1.3,7.8,3.7l163.1,197.2c6.1,7.3,18,3.1,18-6.5V120.7c0-5.6,4.5-10.1,10.1-10.1h67.9c5.6,0,10.1,4.5,10.1,10.1v349.2c0,5.6-4.5,10.1-10.1,10.1h-78.6c-3,0-5.9-1.3-7.8-3.7l-161.9-196c-6.1-7.3-18-3.1-18,6.5h0Z"/>
          <path class="cls-2" d="M972.7,110.5h67.9c5.6,0,10.1,4.5,10.1,10.1v349.2c0,5.6-4.5,10.1-10.1,10.1h-67.9c-5.6,0-10.1-4.5-10.1-10.1V120.7c0-5.6,4.5-10.1,10.1-10.1h0Z"/>
          <path class="cls-3" d="M1403,480.8h-298.4c-13.8,0-25-10.9-25-24.2v-180.8c0-13.3,11.2-24.2,25-24.2h69.7c13.8,0,25,10.9,25,24.2v95.3h153.4v-155.8h-248c-13.8,0-25-10.9-25-24.2v-58c0-13.3,11.2-24.2,25-24.2h311.4c7.4,0,15,2.2,22.5,6.7,6.7,3.9,12.7,8.9,17.9,14.9,5,5.7,9.2,12.1,12.5,18.9,3.8,7.7,5.7,15.3,5.7,22.7v228.7c0,13.4-1.9,25.3-5.7,35.4-3.9,10.5-9.4,19.1-16.3,25.8-6.8,6.6-14.7,11.4-23.4,14.5-8.3,2.9-17.1,4.4-26.3,4.4h0ZM1109.4,451.2h293.7c5.8,0,11.3-.9,16.4-2.7,4.8-1.7,8.9-4.3,12.7-8,3.7-3.5,6.8-8.5,9.1-14.8,2.5-6.7,3.8-15.1,3.8-25v-228.7c0-2.8-.9-6.1-2.7-9.7-2.2-4.5-5-8.6-8.2-12.4-3.1-3.5-6.6-6.5-10.5-8.7-3-1.7-5.6-2.6-7.7-2.6h-306.7v47.2h246.1c5.8,0,11.4,1.9,15.8,5.5l1.9,1.5c5.8,4.6,9.1,11.4,9.1,18.7v163.6c0,7.3-3.3,14.1-9.1,18.8l-1.9,1.5c-4.5,3.5-10.1,5.5-15.8,5.5h-160.8c-13.8,0-25-10.9-25-24.2v-95.3h-60.4v170h0Z"/>
          <path class="cls-3" d="M1896,480.8h-72.1c-9.5,0-18.1-5.1-22.3-13.4l-16.8-32.7h-167.3l-16.8,32.7c-4.2,8.3-12.8,13.4-22.3,13.4h-72.6c-8.8,0-16.8-4.4-21.3-11.7-4.4-7-4.8-15.5-1.2-22.9l157.8-323.4c4.1-8.4,13-13.8,22.5-13.8h75.7c9.6,0,18.5,5.4,22.6,13.9l156.7,323.4c3.6,7.4,3.1,15.9-1.3,22.9-4.6,7.3-12.5,11.6-21.3,11.6h0ZM1826.6,451.2h61.5l-151.4-312.6h-70.3l-152.5,312.6h62l16.8-32.7c4.2-8.3,12.8-13.4,22.3-13.4h172.5c9.5,0,18.1,5.1,22.3,13.4l16.8,32.7h0ZM1741.6,355.2h-78.5c-8.7,0-16.6-4.3-21.2-11.5-4.4-6.8-5-15.3-1.5-22.7l37.2-79.8c4-8.6,12.5-14,22.2-14.2,9.7-.2,18.5,4.9,22.9,13.3l41.4,79.8c3.8,7.4,3.5,16-.8,23.2-4.5,7.4-12.6,11.9-21.5,11.9h0ZM1737.6,333.7h0ZM1670.8,325.6h62.6l-33-63.6-29.6,63.6Z"/>
          <path class="cls-3" d="M2240.9,480.8h-229.8c-10.1,0-19.9-1.4-29.4-4.2-9.8-2.9-18.8-7.4-26.5-13.5-8-6.3-14.5-14.3-19.5-23.8-5-9.7-7.5-21.4-7.5-34.7v-219.4c0-13.3,2.5-25,7.5-34.7,4.9-9.6,11.4-17.6,19.5-23.8,7.7-6,16.7-10.6,26.5-13.5,9.4-2.8,19.3-4.2,29.4-4.2h287.7c13.8,0,25,10.9,25,24.2v60.2c0,13.3-11.2,24.2-25,24.2h-252.8v154.7h159.3v-21.9h-84c-13.8,0-25-10.9-25-24.2v-60.2c0-13.3,11.2-24.2,25-24.2h177.5c13.8,0,25,10.9,25,24.2v138.7c0,12.3-2.7,23.5-8,33.4-5.1,9.4-11.7,17.4-19.7,23.9-7.9,6.5-17,11.3-26.8,14.4-9.5,3-19.1,4.5-28.4,4.5h0ZM2011.2,138.6c-7.2,0-14.3,1-21,2.9-6.4,1.9-11.8,4.6-16.7,8.4-4.7,3.7-8.4,8.2-11.3,14-2.8,5.5-4.3,12.7-4.3,21.2v219.4c0,8.5,1.4,15.7,4.3,21.2,3,5.8,6.7,10.4,11.3,14,4.8,3.8,10.4,6.6,16.7,8.4,6.7,2,13.8,2.9,21,2.9h229.8c6.4,0,12.9-1.1,19.5-3.2,6.3-2,12-5.1,17-9.2,5-4.1,9.1-9,12.3-15,3-5.5,4.4-11.8,4.4-19.3v-133.3h-168.2v49.4h84c13.8,0,25,10.9,25,24.2v32.8c0,13.3-11.2,24.2-25,24.2h-168.6c-13.8,0-25-10.9-25-24.2v-165.5c0-13.3,11.2-24.2,25-24.2h252.8v-49.4h-283.1Z"/>
        </g>
      </g>
    </g>
  </g>
</svg>