<?xml version="1.0" encoding="UTF-8"?>
<svg xmlns="http://www.w3.org/2000/svg" xmlns:xlink="http://www.w3.org/1999/xlink" version="1.1" viewBox="0 0 1417.3 1417.3">
  <defs>
    <style>
      .cls-1 {
        fill: url(#_Безымянный_градиент);
      }

      .cls-2 {
        fill: url(#_Безымянный_градиент_2);
      }

      .cls-3, .cls-4 {
        fill: #fff;
      }

      .cls-5 {
        display: none;
      }

      .cls-4 {
        isolation: isolate;
        opacity: .8;
      }
    </style>
    <linearGradient id="_Безымянный_градиент" data-name="Безымянный градиент" x1="489.9" y1="353.1" x2="2747.2" y2="353.1" gradientTransform="translate(0 1417.3) scale(1 -1)" gradientUnits="userSpaceOnUse">
      <stop offset=".3" stop-color="#d939ac"/>
      <stop offset=".8" stop-color="#b87cf8"/>
    </linearGradient>
    <linearGradient id="_Безымянный_градиент_2" data-name="Безымянный градиент 2" x1="0" y1="706.3" x2="1416.4" y2="711" gradientTransform="translate(0 1417.3) scale(1 -1)" gradientUnits="userSpaceOnUse">
      <stop offset=".3" stop-color="#d939ac"/>
      <stop offset=".8" stop-color="#b87cf8"/>
    </linearGradient>
  </defs>
  <!-- Generator: Adobe Illustrator 28.7.1, SVG Export Plug-In . SVG Version: 1.2.0 Build 142)  -->
  <g>
    <g id="_Слой_1" data-name="Слой_1">
      <g>
        <g id="_Слой_1-2" data-name="_Слой_1" class="cls-5">
          <g>
            <path class="cls-1" d="M504.9,791.1h2227.2c8.3,0,15.1,6.7,15.1,15.1v516c0,8.3-6.7,15.1-15.1,15.1H504.9c-8.3,0-15.1-6.7-15.1-15.1v-516c0-8.3,6.7-15.1,15.1-15.1Z"/>
            <path class="cls-3" d="M957.8,1236.1h-66.7c-3.6,0-6.9-2.1-8.5-5.4l-16.8-35.4c-1.6-3.3-4.9-5.4-8.5-5.4h-159.8c-3.6,0-6.9,2.1-8.5,5.4l-16.8,35.4c-1.6,3.3-4.9,5.4-8.5,5.4h-67.3c-6.8,0-11.4-7.1-8.6-13.3l146.2-323.7c1.5-3.4,4.9-5.5,8.6-5.5h70.1c3.7,0,7.1,2.2,8.6,5.6l145.1,323.7c2.8,6.2-1.8,13.3-8.6,13.3h0ZM823.2,1096.9l-38.4-79.9c-3.5-7.3-13.9-7.1-17.1.4l-34.4,79.9c-2.7,6.2,1.9,13.1,8.6,13.1h72.8c6.9,0,11.5-7.2,8.5-13.5h0Z"/>
            <path class="cls-3" d="M1084.2,1057v169.7c0,5.2-4.2,9.4-9.4,9.4h-64c-5.2,0-9.4-4.2-9.4-9.4v-323.7c0-5.2,4.2-9.4,9.4-9.4h72.8c2.8,0,5.5,1.2,7.3,3.4l151.1,182.8c5.6,6.8,16.7,2.8,16.7-6v-170.8c0-5.2,4.2-9.4,9.4-9.4h62.9c5.2,0,9.4,4.2,9.4,9.4v323.7c0,5.2-4.2,9.4-9.4,9.4h-72.8c-2.8,0-5.5-1.2-7.3-3.4l-150-181.7c-5.6-6.8-16.7-2.8-16.7,6h0Z"/>
            <path class="cls-3" d="M1390.9,893.6h62.9c5.2,0,9.4,4.2,9.4,9.4v323.7c0,5.2-4.2,9.4-9.4,9.4h-62.9c-5.2,0-9.4-4.2-9.4-9.4v-323.7c0-5.2,4.2-9.4,9.4-9.4h0Z"/>
            <path class="cls-4" d="M1789.6,1236.8h-276.4c-12.8,0-23.1-10.1-23.1-22.4v-167.6c0-12.4,10.4-22.4,23.1-22.4h64.6c12.8,0,23.1,10.1,23.1,22.4v88.4h142.1v-144.4h-229.7c-12.8,0-23.1-10.1-23.1-22.4v-53.7c0-12.4,10.4-22.4,23.1-22.4h288.5c6.8,0,13.9,2.1,20.9,6.2,6.2,3.6,11.8,8.2,16.6,13.8,4.6,5.3,8.5,11.2,11.6,17.5,3.5,7.2,5.2,14.2,5.2,21v212c0,12.4-1.8,23.5-5.3,32.8-3.6,9.7-8.8,17.7-15.1,23.9-6.3,6.1-13.6,10.6-21.7,13.4-7.6,2.7-15.8,4.1-24.3,4.1h0ZM1517.6,1209.3h272.1c5.4,0,10.5-.8,15.2-2.5,4.4-1.6,8.3-4,11.8-7.4,3.4-3.3,6.3-7.9,8.5-13.7,2.3-6.2,3.5-14,3.5-23.1v-212c0-2.6-.8-5.6-2.5-9-2-4.1-4.6-8-7.6-11.5-2.8-3.3-6.1-6-9.7-8.1-2.8-1.6-5.2-2.4-7.1-2.4h-284.1v43.7h228c5.3,0,10.5,1.8,14.6,5.1l1.8,1.4c5.4,4.3,8.5,10.6,8.5,17.3v151.6c0,6.8-3.1,13.1-8.5,17.4l-1.8,1.4c-4.1,3.3-9.3,5.1-14.6,5.1h-148.9c-12.8,0-23.1-10.1-23.1-22.4v-88.4h-55.9v157.6h0Z"/>
            <path class="cls-4" d="M2246.3,1236.8h-66.7c-8.8,0-16.8-4.8-20.7-12.4l-15.5-30.3h-155l-15.5,30.3c-3.9,7.6-11.9,12.4-20.7,12.4h-67.3c-8.2,0-15.5-4-19.8-10.8-4-6.5-4.5-14.4-1.1-21.2l146.2-299.8c3.8-7.8,12-12.8,20.9-12.8h70.1c8.9,0,17.1,5,20.9,12.9l145.1,299.8c3.3,6.8,2.9,14.7-1.2,21.2-4.2,6.7-11.6,10.8-19.7,10.8h0ZM2182,1209.3h57l-140.3-289.8h-65.1l-141.3,289.8h57.4l15.5-30.3c3.9-7.6,11.9-12.4,20.7-12.4h159.8c8.8,0,16.8,4.8,20.7,12.4l15.5,30.3h0ZM2103.3,1120.4h-72.8c-8.1,0-15.4-4-19.7-10.6-4.1-6.3-4.6-14.2-1.4-21.1l34.4-74c3.7-7.9,11.6-13,20.6-13.2,9-.2,17.1,4.5,21.2,12.3l38.4,74c3.5,6.9,3.3,14.9-.7,21.5-4.2,6.9-11.6,11-19.9,11h0ZM2099.6,1100.5h0ZM2037.7,1092.9h58l-30.5-58.9-27.4,58.9Z"/>
            <path class="cls-4" d="M2565.8,1236.8h-212.8c-9.3,0-18.5-1.3-27.2-3.9-9.1-2.7-17.4-6.9-24.6-12.5-7.4-5.8-13.5-13.2-18-22.1-4.7-9-7-19.9-7-32.2v-203.3c0-12.3,2.3-23.2,7-32.2,4.5-8.9,10.6-16.3,18-22.1,7.2-5.6,15.5-9.8,24.6-12.5,8.7-2.6,17.9-3.9,27.2-3.9h266.5c12.8,0,23.1,10.1,23.1,22.4v55.8c0,12.4-10.4,22.4-23.1,22.4h-234.1v143.4h147.5v-20.3h-77.8c-12.8,0-23.1-10.1-23.1-22.4v-55.8c0-12.4,10.4-22.4,23.1-22.4h164.4c12.8,0,23.1,10.1,23.1,22.4v128.5c0,11.4-2.5,21.8-7.4,30.9-4.7,8.7-10.8,16.1-18.2,22.2-7.4,6-15.7,10.5-24.8,13.4-8.8,2.8-17.7,4.2-26.3,4.2h0ZM2353,919.6c-6.7,0-13.2.9-19.5,2.7-5.9,1.7-10.9,4.3-15.5,7.8-4.3,3.4-7.7,7.6-10.5,13-2.6,5.1-4,11.8-4,19.7v203.3c0,7.9,1.3,14.5,4,19.7,2.8,5.4,6.2,9.6,10.5,13,4.5,3.5,9.7,6.1,15.5,7.8,6.2,1.8,12.8,2.7,19.5,2.7h212.8c5.9,0,12-1,18.1-2.9,5.8-1.8,11.1-4.7,15.8-8.5,4.7-3.8,8.4-8.3,11.4-13.9,2.8-5.1,4.1-11,4.1-17.9v-123.5h-155.8v45.8h77.8c12.8,0,23.1,10.1,23.1,22.4v30.4c0,12.4-10.4,22.4-23.1,22.4h-156.2c-12.8,0-23.1-10.1-23.1-22.4v-153.4c0-12.4,10.4-22.4,23.1-22.4h234.1v-45.8h-262.2Z"/>
          </g>
        </g>
        <g id="_Слой_2">
          <g>
            <ellipse class="cls-2" cx="708.2" cy="708.7" rx="708.2" ry="708.7"/>
            <path class="cls-3" d="M1136.2,1105h-158.5c-8.6,0-16.5-4.9-20.2-12.8l-40-84c-3.7-7.8-11.5-12.8-20.2-12.8h-379.6c-8.6,0-16.5,4.9-20.2,12.8l-40,84c-3.7,7.8-11.5,12.8-20.2,12.8h-159.7c-16.2,0-27-16.8-20.4-31.6l347.2-768.8c3.6-8,11.6-13.1,20.4-13.1h166.6c8.8,0,16.8,5.2,20.4,13.2l344.7,768.8c6.6,14.8-4.2,31.5-20.4,31.5h0ZM816.5,774.5l-91.1-189.7c-8.3-17.3-33-16.8-40.7.8l-81.8,189.7c-6.4,14.7,4.5,31.2,20.5,31.2h172.9c16.5,0,27.3-17.2,20.1-32h0Z"/>
          </g>
        </g>
      </g>
    </g>
  </g>
</svg>