<svg xmlns="http://www.w3.org/2000/svg" id="Capa_1" enable-background="new 0 0 32 32" viewBox="0 0 32 32" style="transform: scaleX(-1);">
  <path d="m23 2h-14c-2.757 0-5 2.243-5 5v16c0 .553.448 1 1 1h7v5c0 .356.19.686.498.865.309.178.688.179.998.003l6.504-3.717 6.504 3.717c.153.088.325.132.496.132.174 0 .347-.045.502-.135.309-.179.498-.509.498-.865v-22c0-2.757-2.243-5-5-5zm-11 20h-6v-15c0-1.654 1.346-3 3-3s3 1.346 3 3zm14 5.276-5.504-3.145c-.153-.087-.325-.131-.496-.131s-.343.044-.496.132l-5.504 3.144v-20.276c0-1.125-.374-2.164-1.002-3h10.002c1.654 0 3 1.346 3 3z"/>
</svg>