<svg enable-background="new 0 0 141.732 141.732" height="141.732px" id="Livello_1" version="1.1" viewBox="0 0 141.732 141.732" width="141.732px" xml:space="preserve" xmlns="http://www.w3.org/2000/svg" xmlns:xlink="http://www.w3.org/1999/xlink">
  <g id="Livello_28">
    <path fill="#FFF" transform="scale(-1, 1) translate(-141.732, 0)" d="M129.952,2.552c-3.398-3.399-8.912-3.399-12.312,0c-0.02,0.019-0.035,0.037-0.053,0.059l-0.025-0.023l-57.66,57.66l0.062,0.06c-1.969,1.596-3.229,4.028-3.229,6.762c0,2.435,1,4.63,2.609,6.21l-0.025,0.021l57.66,57.659l0.025-0.021c0.018,0.02,0.033,0.039,0.053,0.059c3.398,3.399,8.912,3.399,12.312,0c3.397-3.396,3.396-8.912,0-12.312c-0.021-0.021-0.039-0.033-0.062-0.056l0.025-0.021L77.795,67.064l52.123-52.125l-0.025-0.024c0.021-0.02,0.041-0.034,0.062-0.053C133.351,11.463,133.351,5.95,129.952,2.552"/>
  </g>
</svg>
